<?xml version="1.0" standalone="no"?>
<!DOCTYPE svg PUBLIC "-//W3C//DTD SVG 20010904//EN"
 "http://www.w3.org/TR/2001/REC-SVG-20010904/DTD/svg10.dtd">
<svg version="1.0" xmlns="http://www.w3.org/2000/svg"
 width="500.000000pt" height="500.000000pt" viewBox="0 0 500.000000 500.000000"
 preserveAspectRatio="xMidYMid meet">

<g transform="translate(0.000000,500.000000) scale(0.100000,-0.100000)"
fill="#000000" stroke="none">
<path d="M2275 4320 c-294 -41 -513 -123 -766 -289 -119 -77 -288 -225 -353
-310 -24 -31 -54 -67 -66 -81 -46 -51 -150 -219 -196 -316 -80 -170 -83 -177
-78 -186 3 -4 0 -8 -6 -8 -7 0 -10 -7 -6 -15 3 -8 2 -15 -3 -15 -12 0 -59
-156 -73 -240 -9 -59 -18 -81 -40 -104 -27 -27 -37 -56 -20 -56 4 0 24 16 43
36 18 20 57 54 84 76 28 22 72 60 98 85 26 25 50 44 52 42 2 -2 5 -19 8 -37 3
-19 3 -32 1 -29 -3 3 -35 -25 -72 -61 -76 -76 -115 -122 -104 -122 4 0 -1 -5
-10 -10 -30 -18 -78 -114 -78 -158 0 -47 14 -53 95 -45 28 2 56 5 63 5 6 1 12
5 12 10 0 4 5 8 10 8 6 0 29 9 51 19 21 11 37 16 34 11 -3 -5 8 -3 25 3 16 6
30 15 30 19 0 4 9 8 19 8 11 0 23 5 26 10 4 6 12 7 18 4 7 -4 8 -3 4 1 -8 9
104 65 129 65 7 0 20 8 30 18 10 9 20 17 23 17 21 2 50 18 55 30 3 8 13 15 23
15 10 0 24 9 31 20 7 11 18 20 26 20 7 0 23 9 36 20 12 11 27 17 31 14 5 -3 9
-1 9 3 0 8 14 17 78 47 17 8 32 20 32 27 0 7 3 10 6 6 8 -7 143 84 182 123 17
16 35 30 41 30 6 0 11 3 11 8 0 4 17 18 38 32 20 14 43 33 50 43 7 9 18 15 23
11 5 -3 8 0 7 6 -2 7 6 17 16 23 11 7 33 27 49 44 16 18 33 30 38 27 10 -6
129 103 129 119 0 11 63 74 95 95 11 7 14 10 6 6 -9 -5 -12 -3 -7 4 4 7 13 12
20 12 7 0 21 9 31 20 10 11 24 20 32 20 7 0 13 6 13 13 0 23 66 107 76 98 13
-13 54 5 54 24 0 18 -11 19 -29 3 -11 -11 -11 -9 -2 9 27 52 0 97 -41 69 -12
-9 -30 -16 -40 -16 -41 0 -244 -87 -259 -112 -3 -5 -9 -9 -13 -9 -3 1 -33 -12
-66 -29 -33 -17 -60 -26 -60 -20 0 5 -6 7 -14 4 -8 -3 -17 -1 -20 4 -6 11 92
80 179 126 28 15 104 59 170 97 66 39 154 84 195 100 41 15 102 39 135 53 34
15 80 26 106 26 87 0 90 -37 14 -151 -30 -45 -55 -84 -55 -87 0 -3 -8 -11 -17
-19 -11 -9 -12 -11 -3 -7 10 5 9 0 -4 -14 -19 -22 -56 -30 -56 -13 0 5 22 42
48 83 83 125 91 153 48 164 -29 7 -122 -18 -188 -52 -26 -13 -55 -24 -63 -24
-9 0 -31 -11 -49 -25 -18 -14 -36 -22 -39 -18 -4 3 -7 2 -7 -4 0 -6 -27 -25
-60 -42 -32 -18 -62 -36 -66 -42 -9 -15 62 16 126 55 92 56 116 65 173 68 30
2 54 7 54 12 -4 17 22 17 31 -1 8 -14 4 -31 -14 -68 -14 -28 -26 -63 -27 -80
-1 -21 -8 -31 -22 -33 -24 -5 -46 -22 -41 -31 3 -4 -13 -18 -34 -31 -39 -24
-56 -47 -44 -59 3 -3 16 6 29 22 13 15 33 27 44 27 10 0 21 4 23 9 2 5 19 11
38 14 19 4 54 11 78 17 24 6 48 8 53 4 14 -9 -21 -46 -38 -40 -7 3 -13 2 -13
-3 0 -5 28 -14 62 -21 54 -12 65 -12 90 3 32 18 36 8 16 -35 -14 -30 -90 -65
-153 -71 l-40 -4 45 -1 c25 -1 82 9 127 22 70 20 80 21 76 7 -9 -25 -25 -41
-34 -35 -5 3 -9 1 -9 -3 0 -5 -13 -10 -29 -11 -17 -1 -40 -7 -53 -12 -18 -8
-12 -10 30 -7 29 2 55 1 57 -3 10 -17 -77 -70 -115 -70 -11 0 -20 -4 -20 -10
0 -5 -7 -10 -16 -10 -8 0 -12 5 -9 10 3 6 -2 10 -13 10 -11 0 -44 19 -73 43
-52 40 -53 41 -31 10 12 -17 31 -35 42 -38 11 -4 20 -13 20 -21 0 -8 5 -12 10
-9 6 3 10 2 10 -4 0 -5 10 -11 22 -13 12 -2 23 -9 26 -16 3 -9 -11 -12 -52
-11 -31 1 -56 6 -56 11 0 4 -6 8 -13 8 -8 0 -33 14 -55 30 -23 17 -42 27 -42
23 1 -12 30 -48 40 -49 6 -1 15 -2 22 -3 7 0 3 -8 -8 -17 -10 -8 -13 -12 -5
-8 10 5 13 3 8 -9 -7 -18 8 -33 44 -42 21 -5 27 -2 32 14 4 17 9 19 29 12 34
-12 47 -55 23 -81 -11 -12 -27 -19 -37 -17 -12 3 -20 -4 -27 -23 -7 -23 -20
-32 -65 -46 -30 -10 -53 -21 -50 -25 2 -4 39 4 82 18 42 13 83 25 90 25 6 1
12 4 12 8 0 23 219 -13 257 -43 7 -5 38 -24 70 -44 109 -65 219 -69 326 -10
46 25 63 40 65 58 2 13 21 93 43 177 49 194 83 258 199 372 68 67 104 94 174
128 64 32 85 47 77 55 -12 12 -43 19 -36 8 2 -5 -7 -13 -22 -20 -27 -12 -42
-3 -43 24 0 12 -155 156 -211 197 -58 42 -177 112 -266 157 -125 62 -233 99
-393 133 -131 28 -165 31 -355 34 -115 1 -237 -1 -270 -6z m155 -96 c0 -8 -4
-12 -10 -9 -5 3 -10 10 -10 16 0 5 5 9 10 9 6 0 10 -7 10 -16z m220 1 c0 -8
-4 -15 -10 -15 -5 0 -10 7 -10 15 0 8 5 15 10 15 6 0 10 -7 10 -15z m-390 1
c0 -3 -4 -8 -10 -11 -5 -3 -10 -1 -10 4 0 6 5 11 10 11 6 0 10 -2 10 -4z m740
-55 c0 -6 -4 -13 -10 -16 -5 -3 -10 1 -10 9 0 9 5 16 10 16 6 0 10 -4 10 -9z
m-280 -26 c0 -8 -7 -15 -15 -15 -8 0 -15 7 -15 15 0 8 7 15 15 15 8 0 15 -7
15 -15z m148 -12 c-4 -22 -22 -20 -26 1 -2 10 3 16 13 16 10 0 15 -7 13 -17z
m-888 -25 c0 -16 -3 -19 -11 -11 -6 6 -8 16 -5 22 11 17 16 13 16 -11z m360
12 c0 -5 -2 -10 -4 -10 -3 0 -8 5 -11 10 -3 6 -1 10 4 10 6 0 11 -4 11 -10z
m-100 -41 c0 -25 52 -79 77 -79 11 0 5 -7 -17 -18 -23 -11 -42 -32 -57 -62
-19 -39 -22 -42 -23 -19 0 33 -35 79 -60 79 -10 0 -22 5 -25 10 -3 6 2 10 11
10 26 0 74 50 74 77 0 13 5 23 10 23 6 0 10 -9 10 -21z m950 -65 c14 -7 19
-13 13 -14 -22 0 -53 -39 -54 -67 -1 -27 -1 -27 -9 4 -9 40 -27 63 -49 63 -13
1 -12 3 4 12 29 16 45 39 46 67 0 21 3 19 12 -12 7 -23 22 -44 37 -53z m-649
51 c-1 -15 -24 -12 -29 3 -3 9 2 13 12 10 10 -1 17 -7 17 -13z m-741 -21 c0
-8 -7 -14 -15 -14 -15 0 -21 21 -9 33 10 9 24 -2 24 -19z m1144 -2 c8 -13 -11
-35 -23 -28 -16 10 -14 36 3 36 8 0 17 -4 20 -8z m-951 -19 c9 -9 -13 -34 -24
-27 -14 8 -11 34 4 34 8 0 17 -3 20 -7z m1454 -59 c-9 -9 -28 6 -21 18 4 6 10
6 17 -1 6 -6 8 -13 4 -17z m-1883 -52 c2 -4 1 -14 -4 -22 -7 -11 -12 -12 -21
-3 -6 6 -8 16 -5 22 8 13 23 14 30 3z m1396 -2 c0 -5 -2 -10 -4 -10 -3 0 -8 5
-11 10 -3 6 -1 10 4 10 6 0 11 -4 11 -10z m-1280 -46 c0 -8 -5 -12 -10 -9 -6
4 -8 11 -5 16 9 14 15 11 15 -7z m158 -11 c5 -17 -26 -29 -40 -15 -6 6 -7 15
-3 22 9 14 37 9 43 -7z m232 7 c0 -5 -4 -10 -10 -10 -5 0 -10 5 -10 10 0 6 5
10 10 10 6 0 10 -4 10 -10z m1510 0 c0 -5 -5 -10 -11 -10 -5 0 -7 5 -4 10 3 6
8 10 11 10 2 0 4 -4 4 -10z m-545 -40 c-5 -8 -11 -8 -17 -2 -6 6 -7 16 -3 22
5 8 11 8 17 2 6 -6 7 -16 3 -22z m432 4 c7 -18 -17 -38 -31 -24 -11 11 -1 40
14 40 6 0 13 -7 17 -16z m-2043 -35 c-8 -14 -34 -11 -34 4 0 8 3 17 7 20 9 9
34 -13 27 -24z m566 16 c0 -8 -4 -15 -10 -15 -5 0 -10 7 -10 15 0 8 5 15 10
15 6 0 10 -7 10 -15z m1357 -21 c3 -8 1 -20 -6 -27 -14 -14 -47 15 -37 32 10
16 36 13 43 -5z m253 -50 c0 -17 -22 -14 -28 4 -2 7 3 12 12 12 9 0 16 -7 16
-16z m-600 -4 c0 -5 -4 -10 -10 -10 -5 0 -10 5 -10 10 0 6 5 10 10 10 6 0 10
-4 10 -10z m-1130 -15 c0 -8 -7 -15 -15 -15 -8 0 -15 7 -15 15 0 8 7 15 15 15
8 0 15 -7 15 -15z m190 -5 c0 -5 -4 -10 -10 -10 -5 0 -10 5 -10 10 0 6 5 10
10 10 6 0 10 -4 10 -10z m1102 -62 c-15 -15 -26 -4 -18 18 5 13 9 15 18 6 9
-9 9 -15 0 -24z m308 22 c0 -5 -2 -10 -4 -10 -3 0 -8 5 -11 10 -3 6 -1 10 4
10 6 0 11 -4 11 -10z m-2230 -30 c0 -5 -4 -10 -10 -10 -5 0 -10 5 -10 10 0 6
5 10 10 10 6 0 10 -4 10 -10z m455 -5 c135 -35 272 -143 349 -274 20 -34 36
-64 36 -66 0 -3 -46 -44 -102 -93 -57 -48 -120 -105 -140 -126 -21 -21 -41
-35 -46 -32 -5 3 -29 -12 -52 -34 -24 -22 -52 -43 -64 -46 -12 -4 -36 -20 -55
-36 -18 -16 -45 -35 -60 -41 -14 -7 -33 -19 -42 -27 -35 -31 -73 -54 -93 -55
-12 0 -38 -16 -58 -35 -67 -62 -98 -82 -131 -85 -18 -2 -35 -3 -39 -4 -5 -1
-8 -8 -8 -16 0 -69 -169 132 -186 223 -3 17 -10 32 -14 32 -4 0 -5 11 -2 25 4
21 10 25 41 25 35 0 71 18 121 60 l25 21 -42 -22 c-54 -27 -118 -36 -138 -19
-9 8 -15 29 -15 56 0 43 1 44 33 44 33 0 126 55 114 67 -3 2 -18 -4 -34 -16
-15 -11 -44 -21 -63 -23 l-35 -3 0 50 c1 35 10 71 32 118 18 37 30 67 28 67
-6 0 76 91 123 137 50 48 183 120 245 132 70 14 209 12 272 -4z m1235 -5 c0
-5 -4 -10 -10 -10 -5 0 -10 5 -10 10 0 6 5 10 10 10 6 0 10 -4 10 -10z m353
-67 c-13 -12 -23 -27 -23 -34 0 -7 -10 3 -23 22 -23 34 -23 34 -4 60 l19 26
26 -26 27 -26 -22 -22z m-1313 52 c0 -8 -2 -15 -4 -15 -2 0 -6 7 -10 15 -3 8
-1 15 4 15 6 0 10 -7 10 -15z m250 -49 c0 -3 -4 -8 -10 -11 -5 -3 -10 -1 -10
4 0 6 5 11 10 11 6 0 10 -2 10 -4z m770 -86 c0 -5 -5 -10 -11 -10 -5 0 -7 5
-4 10 3 6 8 10 11 10 2 0 4 -4 4 -10z m-839 -23 c-1 -12 -15 -9 -19 4 -3 6 1
10 8 8 6 -3 11 -8 11 -12z m713 -104 l-26 -46 27 7 c26 7 26 7 9 -16 -16 -22
-94 -83 -94 -74 0 3 -3 11 -6 19 -3 10 5 18 25 25 35 12 44 43 10 37 -26 -5
-22 4 25 59 49 56 66 50 30 -11z m156 11 c0 -8 -5 -12 -10 -9 -6 4 -8 11 -5
16 9 14 15 11 15 -7z m147 -10 c8 -21 -13 -42 -28 -27 -13 13 -5 43 11 43 6 0
13 -7 17 -16z m53 -139 c0 -8 -4 -15 -9 -15 -13 0 -22 16 -14 24 11 11 23 6
23 -9z m-390 -5 c0 -12 -32 -28 -47 -23 -6 2 -27 -13 -47 -34 -26 -29 -38 -35
-46 -26 -9 8 -7 14 9 22 12 7 21 18 21 26 0 15 34 38 43 29 3 -3 14 -1 24 5
23 13 43 14 43 1z m538 -52 c-2 -13 -16 -46 -32 -75 -22 -40 -39 -57 -75 -74
-45 -22 -68 -24 -143 -13 -52 8 -48 20 10 29 51 7 155 70 206 124 35 37 38 38
34 9z m-2472 -95 c-10 -10 -19 5 -10 18 6 11 8 11 12 0 2 -7 1 -15 -2 -18z
m-26 -113 c0 -5 -4 -10 -10 -10 -5 0 -10 5 -10 10 0 6 5 10 10 10 6 0 10 -4
10 -10z m70 -254 c0 -3 -4 -8 -10 -11 -5 -3 -10 -1 -10 4 0 6 5 11 10 11 6 0
10 -2 10 -4z"/>
<path d="M1514 3545 c-26 -26 -23 -60 7 -76 11 -5 19 -7 19 -3 0 3 6 1 14 -5
17 -14 100 4 91 19 -4 6 1 10 10 10 44 0 -21 57 -80 70 -32 7 -41 5 -61 -15z"/>
<path d="M1692 3465 c-18 -21 -42 -31 -117 -48 -13 -3 -10 -5 10 -6 35 -1 104
28 124 53 22 27 7 28 -17 1z"/>
<path d="M1170 3379 c-19 -17 -51 -39 -71 -49 -32 -17 -60 -51 -41 -50 21 1
104 68 141 113 20 25 11 20 -29 -14z"/>
<path d="M3666 3607 c-36 -38 -83 -107 -74 -107 2 0 34 34 71 75 71 78 74 107
3 32z"/>
<path d="M2076 3603 c-6 -14 -5 -15 5 -6 7 7 10 15 7 18 -3 3 -9 -2 -12 -12z"/>
<path d="M4276 3552 c-3 -5 -24 -9 -47 -10 -58 -3 -249 -47 -301 -70 -107 -48
-256 -194 -363 -356 -93 -140 -212 -247 -293 -262 -77 -15 -178 2 -266 45 -47
22 -106 47 -133 56 -62 21 -183 32 -183 17 0 -6 -6 -9 -13 -6 -17 6 -129 -43
-140 -62 -6 -10 -20 -12 -51 -8 -33 5 -44 3 -49 -9 -4 -11 3 -16 23 -19 16 -3
31 -1 32 4 2 5 11 6 21 3 17 -7 22 -38 17 -106 -1 -15 10 -53 24 -85 14 -34
20 -61 14 -63 -5 -2 -26 12 -45 30 l-36 34 19 -33 c10 -17 26 -35 36 -38 10
-3 18 -10 18 -15 0 -6 5 -7 10 -4 6 3 10 2 10 -4 0 -21 -40 -21 -82 0 -24 11
-37 15 -30 8 18 -19 15 -29 -8 -29 -37 0 -20 -16 31 -29 36 -9 47 -16 38 -22
-11 -7 -11 -9 -1 -9 7 0 10 -5 7 -10 -3 -6 -25 -8 -48 -5 -42 5 -42 5 -7 -5
19 -5 41 -7 49 -5 10 4 12 -2 9 -24 -2 -17 -1 -28 4 -25 4 3 8 -3 8 -12 0 -9
11 -32 26 -51 14 -18 23 -33 20 -33 -3 0 20 -35 51 -77 61 -86 83 -129 107
-216 24 -82 29 -157 15 -208 -7 -24 -12 -48 -11 -52 2 -5 -2 -6 -7 -3 -5 3
-14 -8 -21 -24 -10 -24 -17 -29 -34 -25 -15 5 -17 4 -7 -3 11 -8 7 -10 -12 -9
-29 2 -35 12 -14 21 6 3 1 3 -12 0 -17 -4 -21 -3 -16 6 5 9 2 10 -14 5 -13 -4
-21 -2 -21 5 0 7 -6 10 -14 7 -8 -3 -20 1 -28 10 -12 14 -15 51 -20 206 -1 20
-5 37 -10 37 -5 0 -6 11 -2 25 4 16 2 25 -6 25 -6 0 -8 5 -5 10 4 6 2 17 -5
25 -6 7 -13 33 -15 56 -2 23 -8 45 -14 48 -5 3 -13 20 -17 36 -10 45 -34 86
-44 80 -6 -4 -4 -17 4 -33 16 -30 58 -184 76 -276 7 -36 9 -88 5 -132 l-7 -74
-29 15 c-16 9 -32 16 -36 17 -5 1 -21 14 -37 29 -28 26 -29 29 -18 67 16 53
15 201 -3 353 -8 69 -13 149 -10 178 2 31 0 49 -6 46 -5 -4 -9 -13 -9 -21 0
-8 -5 -14 -11 -14 -6 0 -8 7 -5 16 3 9 6 20 6 25 0 5 10 19 22 31 12 12 18 23
12 25 -5 2 -8 27 -6 55 1 29 3 63 3 76 1 12 5 22 9 22 5 0 12 33 17 73 6 54 5
79 -5 100 -10 20 -11 31 -3 41 8 10 8 16 -2 25 -8 6 -14 23 -13 38 1 24 6 29
36 33 l35 5 -27 19 c-16 10 -28 25 -28 32 0 8 -4 14 -10 14 -5 0 -10 6 -10 14
0 7 -9 16 -20 19 -24 6 -27 35 -5 43 19 8 11 70 -12 94 -8 8 -25 30 -37 48
l-24 33 -7 -40 c-6 -34 -16 -48 -63 -86 -32 -24 -63 -53 -69 -64 -7 -11 -39
-39 -70 -63 -32 -24 -62 -49 -66 -56 -5 -7 -12 -10 -17 -7 -5 3 -17 -6 -26
-20 -9 -13 -21 -22 -27 -18 -6 3 -7 1 -3 -5 4 -7 1 -12 -8 -12 -9 0 -16 -5
-16 -11 0 -5 -4 -8 -9 -5 -5 3 -12 -1 -15 -10 -4 -9 -9 -14 -12 -11 -3 2 -15
-5 -28 -17 -12 -11 -35 -30 -51 -41 -16 -11 -34 -26 -42 -33 -7 -7 -13 -10
-13 -5 -1 4 -8 -1 -18 -12 -18 -21 -72 -59 -72 -50 0 3 -9 -3 -19 -12 -35 -32
-47 -40 -69 -47 -12 -4 -27 -16 -33 -27 -5 -11 -13 -18 -17 -15 -4 2 -25 -9
-47 -24 -22 -16 -80 -50 -130 -76 -49 -26 -128 -69 -174 -96 -92 -54 -325
-172 -411 -209 -30 -12 -58 -27 -61 -32 -4 -5 -18 -10 -33 -10 -29 -2 -31 -5
-12 -29 16 -22 25 -22 48 -2 21 20 21 21 43 -98 31 -173 138 -430 260 -627
132 -212 371 -448 580 -572 258 -154 438 -219 704 -255 124 -16 365 -18 466
-4 103 15 289 58 374 86 315 105 650 356 875 657 16 20 26 37 23 37 -3 0 8 14
24 31 16 17 29 36 29 41 0 6 16 37 35 69 62 102 171 382 179 460 2 19 6 41 9
49 13 33 29 141 37 250 9 128 -4 396 -21 416 -6 7 -8 18 -4 23 3 6 1 30 -6 53
-14 53 -19 76 -24 109 -9 64 -90 284 -140 379 -30 57 -53 105 -52 106 1 1 16
3 32 5 33 4 55 16 55 31 0 11 -79 1 -95 -12 -5 -5 -31 -11 -56 -15 -66 -10
-199 -93 -199 -124 0 -6 -6 -11 -14 -11 -21 0 -119 -110 -156 -176 -60 -107
-112 -178 -172 -235 -50 -49 -68 -59 -126 -74 -98 -24 -241 -17 -302 15 -11 6
-20 7 -20 3 0 -4 -4 -3 -8 3 -4 6 -22 19 -40 28 -34 18 -38 35 -5 21 19 -8 28
-11 51 -13 7 -1 11 -6 7 -12 -10 -16 96 -40 181 -40 119 0 177 24 262 108 65
65 140 166 134 184 -1 4 2 8 7 8 5 0 20 19 34 43 14 23 69 86 123 140 110 110
162 140 309 177 125 31 282 25 404 -16 73 -24 103 -41 191 -108 8 -6 5 3 -7
20 -12 17 -40 43 -62 59 -28 19 -38 31 -32 39 6 8 6 17 -1 26 -8 12 -9 12 -4
-3 4 -12 -5 -8 -26 14 -19 18 -34 27 -36 20 -3 -8 -8 -9 -16 -2 -7 6 -28 13
-47 15 -114 14 -158 16 -163 8z m-326 -252 c0 -5 -4 -10 -10 -10 -5 0 -10 5
-10 10 0 6 5 10 10 10 6 0 10 -4 10 -10z m-42 -93 c4 -20 -25 -34 -40 -19 -15
15 -1 44 19 40 10 -2 19 -11 21 -21z m-1668 -67 c0 -5 -4 -10 -10 -10 -5 0
-10 5 -10 10 0 6 5 10 10 10 6 0 10 -4 10 -10z m-130 -210 c-12 -53 -46 -144
-62 -165 -5 -5 -27 -36 -49 -67 -65 -89 -199 -174 -321 -203 -112 -26 -265
-13 -350 31 l-32 16 30 14 c98 44 535 346 659 455 11 10 45 37 75 62 l55 43 3
-65 c2 -36 -2 -91 -8 -121z m1905 154 c0 -12 -8 -20 -22 -22 -25 -4 -31 16
-11 36 17 17 33 10 33 -14z m-1765 -58 c0 -11 -19 -15 -25 -6 -3 5 1 10 9 10
9 0 16 -2 16 -4z m1850 -16 c0 -5 -4 -10 -10 -10 -5 0 -10 5 -10 10 0 6 5 10
10 10 6 0 10 -4 10 -10z m-315 -40 c0 -8 -8 -16 -17 -18 -13 -2 -18 3 -18 18
0 15 5 20 18 18 9 -2 17 -10 17 -18z m-1510 -39 c3 -5 1 -12 -5 -16 -5 -3 -10
1 -10 9 0 18 6 21 15 7z m363 -26 c-35 -30 -50 -96 -41 -173 6 -52 5 -56 -10
-43 -10 7 -17 19 -17 27 0 7 -7 34 -15 59 -28 81 6 148 77 152 l33 2 -27 -24z
m1272 21 c0 -2 -7 -9 -15 -16 -12 -10 -15 -10 -15 4 0 9 7 16 15 16 8 0 15 -2
15 -4z m310 -15 c0 -5 -25 -17 -56 -26 -174 -50 -445 -233 -584 -393 -41 -48
-109 -117 -150 -155 -84 -75 -232 -181 -276 -197 l-29 -10 31 27 c18 16 51 42
75 58 82 58 244 198 288 248 84 98 156 168 231 225 41 31 91 70 110 86 37 32
239 132 280 139 46 8 80 7 80 -2z m-1482 -76 c20 -49 25 -79 26 -165 1 -92 -2
-111 -23 -152 -24 -48 -52 -64 -88 -51 -15 5 -14 2 6 -20 27 -30 22 -44 -15
-44 -19 0 -31 8 -43 29 -9 16 -26 41 -38 55 -26 32 -18 56 32 93 l33 25 -3
113 c-4 143 9 185 57 180 29 -3 34 -9 56 -63z m41 29 c12 -19 19 -40 16 -45
-4 -5 -1 -9 5 -9 6 0 10 -8 9 -17 -1 -10 1 -38 5 -63 16 -109 13 -172 -12
-225 -23 -47 -29 -66 -31 -91 -1 -6 -12 -23 -25 -37 -19 -21 -30 -24 -62 -21
-22 2 -52 6 -69 8 -18 2 -31 9 -33 19 -2 10 -7 17 -12 17 -5 0 -8 9 -7 20 1
11 6 18 12 16 5 -2 9 -8 8 -14 -4 -20 36 -44 79 -45 42 -2 43 -1 66 48 13 28
30 54 38 58 8 4 14 17 14 28 0 11 7 27 15 35 12 12 14 35 10 110 -2 52 -7 100
-12 107 -4 6 -8 17 -10 22 -5 22 -12 52 -22 83 -12 41 -8 41 18 -4z m861 26
c0 -5 -4 -10 -10 -10 -5 0 -10 5 -10 10 0 6 5 10 10 10 6 0 10 -4 10 -10z
m-1420 -30 c0 -5 -4 -10 -10 -10 -5 0 -10 5 -10 10 0 6 5 10 10 10 6 0 10 -4
10 -10z m695 -30 c20 -38 21 -227 1 -252 -20 -27 -25 -22 -24 25 0 23 -7 73
-15 112 -9 38 -14 72 -12 74 2 2 13 -12 24 -30 l21 -34 0 35 c0 19 -4 50 -9
68 -12 40 -6 41 14 2z m665 -54 c0 -8 -4 -17 -9 -21 -12 -7 -24 12 -16 25 9
15 25 12 25 -4z m693 -83 c4 -38 7 -96 7 -130 l0 -62 -40 -11 c-21 -6 -42 -15
-45 -20 -4 -6 -11 -8 -16 -5 -5 4 -46 -13 -91 -37 -60 -32 -110 -70 -190 -147
-113 -108 -109 -103 -258 -367 -53 -95 -174 -214 -259 -255 l-40 -19 -81 55
c-72 49 -78 55 -60 65 11 6 48 36 83 66 72 65 158 112 222 121 46 6 57 16 29
27 -14 5 -16 20 -12 104 11 212 115 406 287 531 131 95 274 149 397 150 l61 1
6 -67z m-863 47 c0 -5 -4 -10 -10 -10 -5 0 -10 5 -10 10 0 6 5 10 10 10 6 0
10 -4 10 -10z m-219 -33 c-13 -13 -26 -3 -16 12 3 6 11 8 17 5 6 -4 6 -10 -1
-17z m-991 -17 c0 -11 -7 -20 -15 -20 -8 0 -15 9 -15 20 0 11 7 20 15 20 8 0
15 -9 15 -20z m860 -30 c0 -5 -7 -10 -15 -10 -8 0 -15 5 -15 10 0 6 7 10 15
10 8 0 15 -4 15 -10z m336 -51 c10 -17 -23 -46 -37 -32 -7 7 -9 19 -6 27 7 18
33 21 43 5z m99 -9 c3 -5 1 -10 -4 -10 -6 0 -11 5 -11 10 0 6 2 10 4 10 3 0 8
-4 11 -10z m-350 -62 c4 -29 13 -42 38 -55 22 -11 27 -18 17 -21 -30 -9 -60
-46 -60 -74 0 -15 -4 -28 -10 -28 -5 0 -10 14 -10 30 0 35 -30 70 -62 71 -22
1 -22 1 3 12 41 19 59 38 59 62 0 26 12 64 16 49 1 -5 5 -26 9 -46z m-1093 0
c-15 -15 -26 -4 -18 18 5 13 9 15 18 6 9 -9 9 -15 0 -24z m855 -56 c-4 -45
-10 -59 -33 -78 -35 -29 -68 -39 -91 -29 -14 6 -11 9 17 16 50 11 70 41 70
104 0 49 2 53 21 48 18 -5 20 -11 16 -61z m343 58 c0 -5 -4 -10 -10 -10 -5 0
-10 5 -10 10 0 6 5 10 10 10 6 0 10 -4 10 -10z m-1040 -40 c0 -5 -4 -10 -10
-10 -5 0 -10 5 -10 10 0 6 5 10 10 10 6 0 10 -4 10 -10z m-280 -25 c0 -8 -7
-15 -15 -15 -16 0 -20 12 -8 23 11 12 23 8 23 -8z m200 -19 c0 -3 -4 -8 -10
-11 -5 -3 -10 -1 -10 4 0 6 5 11 10 11 6 0 10 -2 10 -4z m2155 -68 c-10 -116
-25 -262 -28 -264 -1 -1 -36 -17 -77 -37 -118 -55 -339 -195 -442 -279 -109
-89 -235 -215 -225 -224 10 -10 48 19 108 81 63 66 227 191 237 181 4 -4 -1
-21 -10 -37 -22 -38 -4 -37 30 2 118 134 192 188 309 222 l51 15 -18 -61 c-35
-125 -43 -147 -54 -156 -6 -4 -40 -14 -76 -21 -90 -17 -210 -62 -264 -99 -24
-17 -77 -67 -117 -110 -39 -44 -85 -85 -101 -92 -27 -11 -32 -9 -61 18 -47 44
-107 77 -141 78 -45 0 -41 17 9 44 112 59 237 197 311 344 32 63 74 129 129
205 59 82 228 199 348 242 89 32 89 31 82 -52z m-2495 18 c0 -3 -4 -8 -10 -11
-5 -3 -10 -1 -10 4 0 6 5 11 10 11 6 0 10 -2 10 -4z m1540 -6 c0 -5 -4 -10
-10 -10 -5 0 -10 5 -10 10 0 6 5 10 10 10 6 0 10 -4 10 -10z m-1870 -20 c0 -5
-4 -10 -9 -10 -6 0 -13 5 -16 10 -3 6 1 10 9 10 9 0 16 -4 16 -10z m640 -22
c0 -15 -32 -21 -40 -7 -13 20 9 43 26 28 8 -6 14 -16 14 -21z m-892 -4 c6 -40
-48 -56 -62 -18 -10 26 5 45 33 42 17 -2 27 -10 29 -24z m1803 3 c-13 -13 -26
-3 -16 12 3 6 11 8 17 5 6 -4 6 -10 -1 -17z m-1081 3 c0 -5 -4 -10 -10 -10 -5
0 -10 5 -10 10 0 6 5 10 10 10 6 0 10 -4 10 -10z m-360 -26 c0 -8 -4 -12 -10
-9 -5 3 -10 10 -10 16 0 5 5 9 10 9 6 0 10 -7 10 -16z m134 -29 c3 -9 -1 -18
-10 -22 -19 -7 -28 2 -21 22 8 19 23 19 31 0z m1128 -269 c29 -88 43 -149 55
-230 4 -30 2 -37 -7 -31 -9 5 -11 4 -6 -3 8 -14 -20 -59 -45 -72 -9 -6 -32 -7
-51 -3 l-33 8 40 5 c49 6 65 33 65 110 0 84 -70 350 -93 350 -4 0 -5 5 -2 10
3 6 1 10 -4 10 -6 0 -11 9 -11 19 0 11 -6 26 -14 33 -7 8 -16 30 -20 49 -10
55 92 -152 126 -255z m-972 234 c0 -43 19 -77 49 -88 14 -6 35 -13 46 -17 18
-7 16 -9 -12 -16 -39 -11 -83 -62 -83 -97 0 -52 -17 -56 -24 -5 -8 63 -28 91
-71 99 -35 6 -39 24 -6 24 37 0 70 38 77 90 7 52 24 59 24 10z m-792 -7 c5
-18 -28 -29 -38 -12 -5 7 -6 17 -3 22 7 12 35 5 41 -10z m330 0 c-4 -22 -22
-20 -26 1 -2 10 3 16 13 16 10 0 15 -7 13 -17z m1576 -2 c7 -10 -3 -41 -13
-41 -17 1 -33 20 -28 34 7 17 32 22 41 7z m-854 -61 c0 -5 -2 -10 -4 -10 -3 0
-8 5 -11 10 -3 6 -1 10 4 10 6 0 11 -4 11 -10z m-1295 -24 c92 -28 236 -148
290 -241 27 -47 71 -197 81 -272 4 -29 12 -60 18 -68 6 -9 39 -20 75 -26 35
-5 90 -21 121 -34 32 -14 77 -27 99 -31 45 -7 53 -26 21 -46 -11 -7 -20 -17
-20 -22 0 -4 -17 -29 -39 -55 -21 -25 -46 -61 -55 -78 -9 -18 -19 -33 -22 -33
-19 0 -113 85 -119 108 -3 15 -20 48 -36 75 -16 26 -29 50 -29 53 0 3 -32 59
-70 124 -69 115 -74 122 -171 195 -56 41 -106 75 -113 75 -7 0 -20 8 -29 18
-16 18 -62 165 -73 234 -8 44 -3 46 71 24z m265 -6 c0 -5 -5 -10 -11 -10 -5 0
-7 5 -4 10 3 6 8 10 11 10 2 0 4 -4 4 -10z m130 -10 c0 -5 -4 -10 -10 -10 -5
0 -10 5 -10 10 0 6 5 10 10 10 6 0 10 -4 10 -10z m1790 -20 c0 -11 -4 -20 -9
-20 -14 0 -23 18 -16 30 10 17 25 11 25 -10z m-1430 -10 c0 -11 -7 -20 -15
-20 -8 0 -15 9 -15 20 0 11 7 20 15 20 8 0 15 -9 15 -20z m-210 -26 c0 -8 -4
-12 -10 -9 -5 3 -10 10 -10 16 0 5 5 9 10 9 6 0 10 -7 10 -16z m870 1 c0 -8
-4 -15 -10 -15 -5 0 -10 7 -10 15 0 8 5 15 10 15 6 0 10 -7 10 -15z m1085 -33
c-39 -20 -97 -58 -130 -83 -33 -26 -82 -61 -110 -79 -27 -18 -42 -30 -32 -27
19 7 23 -3 7 -19 -6 -6 -3 -10 9 -11 11 -1 60 34 112 79 52 44 117 91 144 104
50 23 153 50 161 41 2 -2 6 -27 8 -56 l3 -51 -41 -11 c-67 -18 -111 -45 -195
-119 -54 -48 -87 -70 -105 -70 -28 0 -166 58 -166 70 0 4 -18 10 -40 14 -42 7
-49 17 -53 86 -1 19 -6 41 -10 48 -5 7 -4 12 2 12 6 0 11 6 11 13 0 11 11 12
45 7 34 -5 42 -4 35 5 -7 8 -5 12 5 12 8 0 17 -7 20 -15 4 -12 8 -12 23 -1 9
7 14 9 10 5 -4 -5 -3 -15 3 -22 8 -10 16 -11 31 -3 14 8 24 7 35 -3 15 -12 15
-11 4 10 -11 21 -11 23 6 14 21 -11 46 -5 38 9 -4 5 1 6 9 3 9 -3 16 -2 16 3
0 5 24 21 53 35 69 34 75 36 122 37 l40 0 -70 -37z m-1188 -3 c16 -16 5 -39
-18 -39 -12 0 -19 7 -19 18 0 31 17 41 37 21z m212 -19 c12 0 11 -53 -2 -105
l-13 -50 -70 -11 c-38 -7 -95 -19 -126 -29 -50 -14 -60 -15 -78 -2 -21 15 -16
24 20 41 36 15 75 44 73 54 -1 5 9 10 22 10 15 0 22 -5 19 -13 -3 -7 -1 -16 5
-20 6 -3 9 0 5 8 -6 17 31 47 57 47 9 0 24 11 33 25 9 14 22 24 29 22 7 -1 11
9 10 28 -1 17 1 22 3 13 3 -10 9 -18 13 -18z m-851 -63 c2 -11 -3 -17 -16 -17
-26 0 -34 11 -20 27 14 17 32 12 36 -10z m122 -22 c0 -8 -7 -15 -15 -15 -8 0
-15 7 -15 15 0 8 7 15 15 15 8 0 15 -7 15 -15z m410 -11 c0 -8 -7 -14 -15 -14
-15 0 -21 21 -9 33 10 9 24 -2 24 -19z m-750 -20 c0 -17 -15 -25 -34 -18 -19
7 -21 40 -3 47 15 5 37 -11 37 -29z m-403 -86 c49 -21 116 -71 179 -135 48
-49 75 -91 133 -204 39 -78 70 -144 67 -146 -6 -7 -185 99 -224 132 -20 17
-55 76 -98 163 -36 75 -69 139 -73 142 -3 3 -7 10 -8 15 -1 6 -5 18 -8 28 -8
20 -5 21 32 5z m840 -4 c3 -8 1 -20 -5 -26 -15 -15 -43 8 -35 28 7 19 32 18
40 -2z m623 6 c0 -6 -7 -22 -16 -35 -15 -24 -13 -57 3 -54 4 1 10 1 13 0 3 -1
46 -4 95 -7 50 -3 94 -9 98 -14 5 -4 2 -21 -7 -38 -20 -39 -20 -44 3 -71 16
-18 20 -19 31 -6 8 10 9 15 2 15 -19 0 -36 41 -22 50 7 4 9 13 5 20 -5 9 -4
11 4 6 6 -4 14 0 17 8 8 22 29 20 81 -6 58 -29 71 -52 41 -72 -12 -9 -36 -16
-53 -16 -40 0 -75 -10 -75 -21 0 -5 16 -9 35 -9 19 0 35 4 35 9 0 6 12 6 28 2
15 -5 36 -6 47 -4 55 12 282 15 332 3 71 -15 143 -48 150 -67 5 -12 7 -12 14
-1 7 10 9 9 9 -4 0 -9 9 -20 20 -23 11 -4 19 -12 18 -18 -1 -7 3 -22 10 -35 7
-12 11 -26 8 -31 -3 -4 6 -7 19 -5 28 3 31 -5 13 -25 -11 -12 -10 -13 6 -7 18
6 18 5 2 -19 -16 -24 -16 -26 9 -35 14 -5 25 -12 25 -16 0 -3 -6 -4 -13 -1 -9
3 -12 -7 -12 -33 0 -21 3 -42 7 -46 4 -3 6 2 4 13 -3 12 1 20 10 20 9 0 11 -4
5 -10 -5 -5 -7 -16 -4 -23 3 -9 -1 -14 -12 -14 -10 0 -13 -4 -9 -12 5 -8 1 -7
-10 1 -16 13 -17 13 -14 -5 2 -11 -2 -18 -10 -16 -10 2 -10 -2 -3 -17 8 -14 6
-22 -9 -36 -18 -16 -18 -16 -16 9 2 14 0 26 -5 26 -4 0 -10 13 -14 28 -15 72
-143 148 -205 122 -15 -6 -38 -23 -51 -36 -56 -59 1 -219 91 -256 36 -15 110
-26 110 -17 0 5 7 6 15 3 22 -9 18 -22 -7 -30 -24 -7 -35 -4 -31 9 2 4 -14 7
-34 7 -35 0 -36 -1 -21 -17 16 -15 14 -17 -18 -35 -40 -21 -48 -22 -38 -5 5 6
-9 -3 -30 -21 -20 -18 -41 -30 -45 -27 -5 2 -14 -2 -21 -10 -6 -7 -17 -12 -24
-9 -8 3 -16 -2 -19 -10 -4 -9 -15 -13 -26 -11 -11 2 -23 -1 -27 -6 -4 -6 -12
-5 -22 3 -10 7 -14 9 -10 4 4 -5 1 -15 -7 -22 -17 -17 -29 -18 -19 -2 8 13
-12 3 -39 -20 -9 -8 -20 -12 -24 -9 -3 4 -13 1 -21 -6 -13 -10 -14 -9 -7 2 6
11 2 10 -16 -2 -13 -9 -31 -17 -40 -17 -10 0 -19 -5 -21 -11 -2 -7 -18 -12
-36 -13 -18 0 -32 -4 -32 -8 0 -5 -11 -8 -24 -8 -14 0 -37 -5 -53 -11 -15 -6
-39 -13 -53 -14 -14 -2 -29 -3 -33 -4 -5 -1 -6 -4 -4 -8 10 -16 -121 -12 -233
7 -158 27 -293 74 -453 158 -160 83 -347 215 -347 243 0 11 7 22 15 25 8 4 13
10 10 14 -3 5 -1 11 5 15 6 4 8 11 5 16 -4 5 -2 9 3 9 8 0 35 51 37 70 3 23
18 49 26 44 5 -3 8 -1 7 4 -3 10 15 32 130 164 68 78 247 226 259 214 3 -3 11
-2 17 3 6 5 48 23 93 41 46 17 86 37 90 44 9 16 98 43 198 61 90 17 85 17 85
5z m88 -40 l22 -29 -46 -7 c-35 -5 -49 -3 -61 9 -14 14 -13 18 10 41 29 29 42
27 75 -14z m-952 -6 c40 -21 92 -57 116 -82 46 -47 29 -45 -43 7 -19 14 -68
41 -107 60 -40 19 -72 38 -72 43 0 16 35 7 106 -28z m433 7 c-13 -11 -26 -17
-29 -14 -6 6 30 33 43 33 5 0 -1 -9 -14 -19z m131 3 c0 -9 -27 -27 -65 -45
-72 -32 -95 -36 -95 -15 0 10 16 17 45 22 46 6 57 17 29 28 -10 4 -13 2 -8 -6
5 -7 2 -9 -8 -5 -9 3 -21 0 -27 -6 -6 -6 -11 -8 -11 -4 0 16 61 43 99 44 31 2
41 -2 41 -13z m942 -18 c106 -39 219 -101 307 -166 46 -34 81 -63 79 -66 -12
-11 -77 23 -109 58 -20 21 -43 38 -52 38 -10 0 -17 4 -17 8 0 10 -65 42 -85
42 -8 0 -15 3 -15 8 0 7 -89 44 -140 58 -29 7 -50 23 -50 35 0 14 14 11 82
-15z m-1593 -70 c84 -43 145 -95 172 -148 11 -22 24 -36 30 -32 7 4 7 -1 0
-15 -14 -26 -40 -26 -106 -2 -108 40 -142 50 -196 61 l-56 11 -6 52 c-3 29 -9
67 -13 86 l-7 34 55 -6 c34 -3 82 -19 127 -41z m2741 25 c0 -13 -67 -150 -114
-234 -25 -44 -48 -72 -65 -79 -66 -27 -201 -92 -244 -119 -26 -16 -51 -29 -55
-29 -11 1 -62 85 -62 103 0 23 173 228 227 268 59 44 83 57 148 80 52 19 165
26 165 10z m-684 -203 c17 -35 73 -98 86 -98 18 0 6 23 -34 67 -24 25 -34 41
-23 35 25 -13 69 -60 83 -88 11 -21 6 -60 -10 -81 -8 -9 -15 -10 -30 -2 -20
11 -20 11 0 32 l21 22 -40 30 c-48 36 -92 91 -84 105 9 15 13 13 31 -22z m174
-77 c0 -5 -7 -14 -15 -21 -13 -10 -15 -9 -15 9 0 12 6 21 15 21 8 0 15 -4 15
-9z m-2450 -110 c3 -3 30 -19 60 -34 30 -15 74 -44 98 -65 l43 -37 -16 -38
c-8 -20 -21 -37 -28 -37 -7 0 -46 35 -88 78 -105 109 -122 129 -115 141 6 9
35 4 46 -8z m2715 -23 c-77 -91 -131 -149 -151 -163 -23 -15 -24 -14 -44 27
-24 49 -20 55 58 105 56 36 114 61 145 62 16 1 15 -3 -8 -31z m-284 -44 c42
-70 84 -172 75 -181 -10 -10 -21 7 -40 60 -10 26 -23 53 -29 60 -7 7 -13 19
-15 27 -2 8 -8 18 -14 21 -5 3 -9 9 -9 13 1 3 -6 20 -15 37 -29 57 8 27 47
-37z m-470 4 c12 -13 18 -17 14 -9 -5 9 -3 12 4 10 7 -3 11 -7 9 -10 -2 -3 9
-20 24 -37 47 -56 49 -127 7 -174 -20 -22 -27 -24 -70 -17 -50 8 -111 37 -104
49 3 4 -7 18 -20 30 -33 31 -32 75 2 128 20 30 35 42 57 45 17 2 36 5 43 5 7
1 22 -8 34 -20z m289 -253 c17 -20 5 -45 -20 -45 -23 0 -35 22 -26 45 7 19 30
19 46 0z"/>
<path d="M1780 2823 c-38 -26 -49 -45 -50 -81 0 -61 75 -69 131 -12 28 27 40
82 21 94 -26 16 -79 16 -102 -1z"/>
<path d="M1947 2767 c-9 -12 -17 -24 -17 -28 0 -4 -10 -9 -22 -12 -12 -4 -19
-9 -15 -13 4 -4 -3 -12 -16 -18 -12 -7 -22 -20 -22 -30 0 -17 -14 -25 -52 -28
-9 -1 -10 -5 -2 -15 9 -10 8 -13 -5 -13 -9 0 -16 -5 -16 -11 0 -5 -4 -7 -10
-4 -5 3 -10 -1 -10 -10 0 -9 -5 -13 -10 -10 -6 4 -7 12 -3 18 5 8 2 8 -9 0 -8
-7 -18 -10 -21 -6 -7 6 -11 -12 -8 -30 1 -5 -4 -5 -10 -1 -14 8 -81 10 -95 2
-5 -3 -26 -4 -47 -3 -27 1 -36 -2 -33 -11 3 -8 0 -11 -9 -7 -8 3 -13 9 -10 13
3 5 0 12 -6 16 -8 5 -9 3 -4 -6 6 -9 0 -11 -24 -5 -24 5 -32 3 -37 -10 -5 -13
-8 -14 -15 -3 -7 10 -9 11 -9 0 0 -7 -5 -10 -10 -7 -6 4 -8 10 -5 15 3 4 -2
10 -10 14 -8 3 -17 1 -20 -4 -6 -10 32 -34 55 -35 8 0 21 -4 29 -9 11 -7 12
-6 6 5 -7 11 -6 12 6 3 17 -14 207 -12 217 2 4 5 13 9 20 10 30 2 34 5 28 22
-6 16 -5 16 7 0 12 -15 16 -14 47 12 18 15 46 31 62 34 32 6 124 87 126 111 1
8 3 22 4 30 1 8 5 15 10 15 13 0 9 17 -5 23 -7 3 -21 -5 -30 -16z m-480 -223
c-3 -3 -12 -4 -19 -1 -8 3 -5 6 6 6 11 1 17 -2 13 -5z m186 -1 c3 -5 -14 -9
-37 -9 -33 -2 -36 0 -16 6 34 11 48 11 53 3z"/>
<path d="M1411 1415 c0 -5 6 -21 14 -35 8 -14 14 -20 14 -15 0 6 -6 21 -14 35
-8 14 -14 21 -14 15z"/>
<path d="M2053 1625 c-9 -25 2 -27 22 -5 17 18 17 20 1 20 -9 0 -19 -7 -23
-15z"/>
<path d="M2090 1600 c-21 -13 1 -33 31 -28 32 4 39 38 7 38 -13 0 -30 -5 -38
-10z"/>
<path d="M1720 1416 c0 -20 27 -28 34 -10 9 23 8 24 -14 24 -11 0 -20 -6 -20
-14z"/>
<path d="M1653 1405 c-26 -19 -14 -23 26 -10 29 10 31 13 13 17 -12 3 -29 0
-39 -7z"/>
<path d="M2286 1403 c-3 -4 -16 -8 -27 -10 -38 -6 -117 -53 -138 -82 -57 -80
-74 -160 -46 -215 8 -15 15 -36 15 -45 0 -38 51 -92 118 -124 89 -41 167 -41
258 2 68 32 101 70 129 150 16 47 20 136 6 145 -4 3 -11 19 -14 34 -15 75
-136 152 -237 152 -31 0 -60 -3 -64 -7z m160 -49 c55 -23 64 -30 88 -77 64
-127 2 -259 -150 -323 -39 -16 -95 -14 -161 7 -63 20 -133 122 -133 194 0 84
74 179 162 207 96 31 98 31 194 -8z"/>
<path d="M1659 1355 c-34 -19 -58 -56 -61 -97 -3 -29 0 -33 23 -36 33 -4 89
49 102 97 12 49 -13 64 -64 36z"/>
<path d="M1568 1333 c-6 -16 -13 -50 -15 -78 -4 -44 -2 -53 21 -74 14 -14 26
-21 26 -16 0 4 -8 13 -17 20 -22 16 -22 104 1 136 18 27 20 39 6 39 -6 0 -15
-12 -22 -27z"/>
<path d="M1770 1340 c0 -11 4 -20 9 -20 5 0 7 9 4 20 -3 11 -7 20 -9 20 -2 0
-4 -9 -4 -20z"/>
<path d="M1710 1230 c-24 -22 -47 -40 -52 -40 -5 0 -16 -7 -24 -15 -9 -8 -11
-15 -6 -15 5 0 12 3 16 8 7 7 11 8 37 11 23 2 96 91 76 91 -2 0 -23 -18 -47
-40z"/>
<path d="M1726 1180 c-22 -17 -35 -30 -30 -30 10 0 83 59 74 59 -3 0 -23 -13
-44 -29z"/>
<path d="M2003 944 c-6 -16 19 -44 39 -44 15 0 20 30 8 45 -16 20 -39 19 -47
-1z"/>
<path d="M2445 889 c-27 -16 -43 -29 -35 -29 32 0 60 13 75 36 8 13 14 24 13
23 -2 -1 -25 -14 -53 -30z"/>
<path d="M3783 1508 c-29 -21 -59 -57 -51 -62 2 -1 23 17 47 41 50 48 51 54 4
21z"/>
<path d="M3386 1043 c-13 -14 -5 -33 14 -33 11 0 20 6 20 14 0 15 -24 28 -34
19z"/>
<path d="M2257 3389 c4 -13 8 -18 11 -10 2 7 -1 18 -6 23 -8 8 -9 4 -5 -13z"/>
<path d="M2350 3350 c0 -5 5 -10 10 -10 6 0 10 5 10 10 0 6 -4 10 -10 10 -5 0
-10 -4 -10 -10z"/>
<path d="M2160 3270 c-36 -37 -68 -66 -72 -64 -5 3 -8 0 -8 -5 0 -16 4 -14 52
18 53 36 84 69 91 99 3 12 4 22 4 21 -1 0 -31 -31 -67 -69z"/>
<path d="M2430 3301 c18 -22 37 -38 41 -35 5 3 9 0 9 -5 0 -6 4 -11 8 -11 5 0
9 7 9 15 0 8 -4 12 -9 9 -4 -3 -8 0 -8 6 0 6 -4 8 -10 5 -5 -3 -10 0 -10 7 0
21 -13 35 -39 43 -22 7 -22 5 9 -34z"/>
<path d="M2336 3303 c-6 -14 -5 -15 5 -6 7 7 10 15 7 18 -3 3 -9 -2 -12 -12z"/>
<path d="M2406 3242 c-3 -6 -1 -14 5 -17 14 -9 20 -2 10 14 -6 8 -11 9 -15 3z"/>
<path d="M3415 3099 c-4 -6 -5 -12 -2 -15 2 -3 7 2 10 11 7 17 1 20 -8 4z"/>
<path d="M1885 3033 c-61 -42 -205 -155 -205 -160 0 -7 20 7 125 87 55 41 111
83 125 92 14 9 21 17 15 16 -5 0 -32 -16 -60 -35z"/>
<path d="M2680 3051 c-14 -5 -59 -22 -100 -39 -41 -16 -82 -32 -90 -35 -11 -4
-10 -6 3 -6 10 -1 51 12 90 28 65 26 135 44 207 55 14 2 0 4 -30 4 -30 0 -66
-3 -80 -7z"/>
<path d="M1515 2769 c-71 -49 -177 -112 -235 -141 -58 -28 -146 -75 -196 -104
-254 -148 -533 -229 -591 -171 -17 17 -17 20 11 70 29 53 114 158 152 189 25
20 137 149 114 131 -8 -6 -18 -11 -22 -10 -4 1 -20 -16 -36 -38 -32 -44 -99
-102 -114 -97 -5 1 -7 -2 -4 -7 4 -5 -3 -16 -14 -24 -12 -8 -33 -34 -49 -58
-15 -24 -44 -61 -64 -82 -20 -20 -37 -46 -37 -57 0 -11 -3 -20 -7 -20 -15 0
-12 -58 3 -70 28 -24 194 7 336 63 141 55 374 177 396 208 7 10 18 17 23 13 6
-3 21 4 35 17 13 12 24 20 24 16 0 -11 54 17 175 93 105 65 143 90 230 154 11
8 16 15 10 15 -5 -1 -68 -41 -140 -90z"/>
<path d="M2411 2748 c-14 -80 -14 -170 -1 -147 5 8 10 49 12 90 2 41 7 80 12
87 5 8 4 18 -2 24 -6 6 -13 -12 -21 -54z"/>
<path d="M2393 2503 c9 -2 23 -2 30 0 6 3 -1 5 -18 5 -16 0 -22 -2 -12 -5z"/>
</g>
</svg>
