<?xml version="1.0" standalone="no"?>
<!DOCTYPE svg PUBLIC "-//W3C//DTD SVG 20010904//EN"
 "http://www.w3.org/TR/2001/REC-SVG-20010904/DTD/svg10.dtd">
<svg version="1.0" xmlns="http://www.w3.org/2000/svg"
 width="500.000000pt" height="500.000000pt" viewBox="0 0 500.000000 500.000000"
 preserveAspectRatio="xMidYMid meet">

<g transform="translate(0.000000,500.000000) scale(0.100000,-0.100000)"
fill="#000000" stroke="none">
<path d="M2130 3759 c-202 -43 -313 -80 -442 -144 -362 -182 -662 -570 -744
-962 -38 -183 -32 -465 14 -643 38 -147 127 -341 215 -469 163 -235 379 -410
652 -526 129 -55 213 -80 359 -105 141 -24 238 -25 386 -5 420 59 760 276 997
637 160 243 235 495 236 788 1 154 -21 304 -63 425 -32 92 -29 103 49 189 118
129 146 217 115 357 -27 121 -25 191 5 223 l24 26 -24 1 c-21 1 -20 2 9 12 37
12 38 31 0 35 -54 7 -130 -35 -225 -123 -84 -78 -93 -91 -114 -153 -19 -59
-45 -119 -55 -131 -2 -2 -50 45 -106 104 -216 228 -436 359 -732 436 -112 29
-135 32 -316 35 -107 2 -215 -1 -240 -7z m345 -30 c274 -37 455 -104 660 -242
93 -63 319 -279 344 -330 14 -26 13 -29 -25 -68 -21 -22 -59 -52 -84 -66 -48
-29 -97 -32 -310 -24 -67 3 -96 -1 -138 -17 -77 -30 -178 -93 -245 -153 l-59
-52 -30 17 c-19 12 -40 16 -59 12 -32 -6 -38 4 -12 25 83 69 173 288 108 262
-12 -4 -5 18 25 76 22 45 38 86 35 90 -2 5 -22 3 -42 -5 -58 -20 -63 -19 -52
18 12 44 12 125 -1 133 -6 3 -21 -7 -35 -23 -30 -35 -63 -49 -132 -55 -45 -3
-51 -2 -44 12 15 28 21 86 11 101 -8 12 -15 10 -42 -16 -44 -41 -79 -54 -141
-54 -67 0 -138 -19 -207 -56 -30 -16 -57 -30 -61 -32 -3 -1 -3 13 -1 33 5 43
-22 50 -33 8 -3 -16 -14 -37 -23 -47 -16 -18 -16 -19 1 -13 26 10 21 -6 -14
-39 -75 -70 -98 -148 -64 -214 21 -40 35 -38 28 4 -18 111 38 194 181 266 65
33 99 44 164 51 45 5 101 16 124 24 23 8 44 12 46 10 5 -4 -33 -41 -69 -67
-23 -17 -21 -17 76 -12 108 6 160 18 188 42 9 8 20 12 23 9 12 -12 -27 -102
-58 -134 -30 -31 -31 -33 -10 -33 12 0 45 9 74 20 29 11 54 20 55 20 0 0 -7
-18 -18 -40 -10 -21 -19 -43 -19 -47 0 -5 -13 -24 -29 -44 -33 -39 -70 -53
-171 -65 -80 -8 -57 -22 40 -23 49 -1 78 5 118 24 28 13 52 22 52 19 0 -29
-111 -164 -135 -164 -6 0 -20 9 -29 19 -17 19 -17 20 11 35 33 16 59 44 51 52
-3 3 -25 -4 -49 -15 -24 -10 -69 -25 -99 -31 -30 -7 -68 -16 -84 -21 -16 -5
-49 -9 -74 -9 -69 0 -40 -14 41 -20 70 -6 71 -6 42 -19 -49 -21 -143 -18 -200
8 -27 12 -57 29 -67 38 -27 24 -35 7 -10 -20 31 -32 96 -66 146 -74 l41 -7
-40 -7 c-123 -23 -194 -5 -251 64 l-25 32 7 -35 c4 -19 8 -58 8 -86 1 -28 7
-59 15 -68 11 -14 11 -16 -2 -16 -8 0 -29 16 -45 35 -36 40 -49 104 -33 161
14 51 15 49 -15 62 -28 13 -54 66 -54 112 0 16 9 53 20 82 22 59 24 68 12 68
-13 0 -50 -72 -57 -113 -12 -60 2 -122 36 -158 27 -29 28 -34 18 -69 -26 -85
38 -194 128 -219 73 -21 92 -4 44 39 -34 32 -43 57 -13 41 9 -5 32 -24 50 -41
25 -26 32 -41 32 -71 0 -42 -2 -40 80 -68 140 -48 129 -47 173 -23 22 12 42
20 45 17 3 -3 -8 -35 -23 -71 -37 -87 -97 -163 -135 -170 -16 -4 -37 -15 -46
-25 -10 -12 -30 -19 -52 -19 -42 0 -102 -54 -102 -93 0 -20 -11 -30 -64 -56
-35 -17 -69 -31 -75 -31 -23 0 -22 29 3 89 30 69 33 109 11 118 -25 9 -51 -23
-81 -103 -27 -69 -33 -77 -80 -104 -62 -35 -94 -73 -94 -111 0 -29 -1 -29 -57
-29 -55 0 -124 6 -392 33 l-124 12 -13 39 c-8 21 -21 97 -30 170 -54 438 92
837 424 1157 164 159 325 252 567 328 175 55 357 72 520 50z m1350 -266 c1
-38 8 -99 17 -136 20 -85 10 -170 -29 -237 -44 -76 -179 -203 -253 -238 -106
-50 -240 -65 -375 -42 -33 6 -107 15 -164 20 -93 8 -109 7 -164 -11 -34 -11
-85 -37 -115 -57 -52 -34 -55 -35 -68 -17 -12 17 -11 22 13 48 37 38 161 122
221 149 50 22 92 24 302 17 99 -4 108 -2 159 25 82 43 154 116 195 200 20 40
36 79 36 88 0 28 29 87 62 124 24 27 153 134 162 134 1 0 1 -30 1 -67z m-1421
-599 c24 -24 20 -71 -9 -100 -14 -14 -25 -27 -25 -29 0 -9 39 -5 65 7 21 9 29
9 42 -4 14 -15 11 -20 -27 -62 -49 -53 -70 -58 -70 -18 l-1 27 -22 -29 c-56
-73 -97 -106 -132 -106 -19 0 -37 5 -40 10 -3 6 -19 10 -36 10 -16 0 -29 4
-29 9 0 6 -15 11 -32 13 -30 3 -33 7 -40 47 -5 30 -18 56 -39 77 l-32 33 44
-1 c65 -1 122 11 190 38 33 14 64 22 68 20 4 -3 25 13 46 34 43 44 56 48 79
24z m1273 -76 c12 -35 26 -83 32 -108 15 -61 41 -273 41 -332 l0 -48 -42 0
c-150 -2 -378 -61 -577 -151 -75 -34 -81 -35 -81 -11 0 36 -53 199 -87 268
-42 87 -119 185 -185 239 l-49 39 38 11 c21 7 73 28 116 48 104 48 123 51 251
32 204 -28 328 -17 438 40 35 18 68 33 74 34 6 1 20 -27 31 -61z m-1111 -19
c23 -38 -7 -105 -75 -167 -50 -45 -131 -65 -131 -32 0 4 12 11 27 15 60 15
140 104 147 163 2 15 4 28 5 30 3 6 21 1 27 -9z m64 -69 c0 -102 -146 -233
-228 -204 -39 14 -42 42 -4 36 16 -2 42 3 58 11 39 20 120 107 141 151 21 44
33 46 33 6z m114 -79 c90 -67 167 -179 223 -326 40 -103 53 -176 53 -294 0
-75 -4 -98 -17 -113 -14 -15 -15 -23 -6 -37 20 -32 5 -61 -31 -61 -35 0 -216
84 -216 100 0 15 16 12 60 -10 45 -23 144 -37 154 -22 3 6 -14 12 -42 16 -26
4 -68 14 -94 22 -55 18 -65 44 -18 44 32 0 116 35 127 53 4 7 0 8 -13 2 -55
-24 -134 -13 -134 19 0 7 23 32 52 56 49 42 53 64 8 40 -31 -16 -33 -9 -11 36
22 45 53 146 46 152 -8 8 -62 -57 -75 -90 -7 -18 -18 -46 -25 -63 -7 -16 -24
-64 -39 -105 -43 -119 -76 -172 -119 -194 -44 -21 -105 -15 -113 12 -3 9 -19
49 -36 87 -50 117 -48 129 18 79 48 -37 53 -24 8 19 l-37 35 25 31 c27 32 52
98 64 166 12 78 35 143 59 169 35 38 5 32 -33 -6 -26 -27 -35 -52 -57 -146
-15 -61 -30 -110 -35 -107 -12 8 -75 124 -91 167 -12 35 -33 55 -43 40 -3 -6
27 -102 49 -154 6 -15 2 -18 -18 -18 -31 0 -43 -16 -21 -28 14 -8 14 -10 -1
-26 -14 -13 -27 -16 -57 -11 -37 7 -39 6 -27 -12 15 -25 5 -69 -20 -83 -18 -9
-21 -4 -35 44 -15 50 -49 103 -86 133 -13 11 -13 14 0 23 8 5 22 10 32 10 24
0 107 97 137 160 14 30 27 57 28 59 1 2 8 -1 15 -6 65 -52 166 -26 247 62 27
30 55 68 63 85 7 16 16 30 21 30 4 0 32 -18 61 -39z m996 -397 c0 -19 -4 -54
-9 -77 -6 -23 -15 -70 -22 -104 l-13 -62 -63 -27 c-91 -38 -161 -86 -335 -227
-242 -196 -547 -417 -576 -417 -5 0 -15 -7 -22 -15 -7 -8 -10 -15 -7 -15 9 0
117 65 169 102 25 18 88 63 140 99 51 37 162 122 247 190 215 173 276 217 356
255 51 24 71 29 73 19 2 -7 -11 -49 -28 -93 -28 -72 -37 -84 -88 -123 -31 -24
-108 -86 -171 -139 -62 -52 -128 -106 -145 -120 -17 -13 -68 -57 -114 -97
-144 -125 -434 -333 -465 -333 -6 0 -8 -3 -5 -6 8 -7 100 40 173 89 62 42 365
280 662 520 71 57 78 57 50 0 -62 -121 -246 -326 -392 -436 -139 -105 -384
-207 -566 -236 -94 -15 -356 -13 -452 4 -141 25 -270 64 -381 116 l-29 14 39
12 39 12 -50 -5 c-47 -6 -56 -3 -130 42 -105 62 -151 100 -263 214 -80 80
-202 235 -202 256 0 3 -8 18 -19 32 -18 26 -121 252 -121 265 0 11 65 8 221
-8 79 -8 194 -16 254 -18 109 -2 110 -2 110 -27 0 -22 -11 -27 -137 -69 -76
-24 -138 -49 -138 -54 0 -10 5 -15 135 -124 44 -37 93 -81 109 -96 l28 -29 52
17 c50 16 148 64 133 65 -4 0 -36 -9 -70 -19 -148 -46 -139 -30 11 19 l93 31
26 -25 c32 -32 73 -34 138 -6 63 27 115 27 115 0 0 -11 9 -25 20 -32 11 -7 20
-18 20 -25 0 -15 57 -49 98 -58 18 -4 30 -11 27 -15 -3 -5 17 -6 46 -3 41 5
50 3 44 -6 -5 -10 -2 -12 11 -8 11 3 44 10 74 16 61 10 260 69 330 97 47 18
239 115 300 151 166 97 172 108 26 47 -44 -19 -81 -32 -83 -31 -1 2 38 28 87
58 50 30 90 57 90 61 0 3 -23 -3 -51 -13 -29 -11 -61 -19 -73 -17 -18 3 -17 6
12 21 41 22 42 38 1 30 -30 -6 -31 -5 -23 18 4 13 7 63 6 110 -1 80 0 87 21
97 48 22 117 52 122 52 3 0 24 9 48 19 115 53 314 98 435 100 l52 1 0 -36z
m-1956 -66 c-24 -69 -63 -151 -64 -136 0 4 14 42 31 85 17 43 35 88 40 101 5
12 11 22 13 22 3 0 -7 -32 -20 -72z m356 33 c44 -46 68 -117 50 -150 -18 -34
-88 -56 -76 -25 15 39 -35 132 -87 160 -21 12 -14 41 11 47 46 12 66 6 102
-32z m315 -42 c6 -25 2 -36 -21 -60 -30 -32 -40 -34 -80 -19 l-27 11 53 54
c29 30 57 52 61 49 4 -2 11 -18 14 -35z m-399 -54 c30 -52 27 -70 -13 -79 -98
-24 -168 -51 -196 -75 -17 -16 -43 -31 -57 -35 -24 -7 -24 -7 -5 9 11 9 29 22
40 30 18 13 17 13 -14 5 -19 -5 -38 -7 -43 -4 -4 3 -27 -11 -50 -30 -27 -23
-45 -33 -51 -27 -14 14 17 59 54 79 16 10 36 32 45 50 13 27 20 33 38 28 16
-4 53 10 117 43 52 27 97 50 101 50 4 1 19 -19 34 -44z m-361 -67 c-9 -41 -11
-44 -29 -29 -16 13 -32 -1 -21 -19 3 -5 3 -21 -1 -35 -5 -20 -9 -23 -20 -14
-27 22 -17 65 23 98 48 39 56 39 48 -1z m645 28 c0 -8 -71 -48 -76 -43 -3 2
10 14 28 25 33 20 48 26 48 18z m83 -73 c25 -40 34 -60 47 -106 l9 -28 -51 3
c-49 3 -52 5 -68 43 -10 22 -25 46 -34 54 -23 20 -20 38 12 55 42 23 60 19 85
-21z m-175 -6 c17 -20 4 -30 -96 -80 -67 -35 -104 -47 -136 -47 -45 0 -146 36
-146 52 0 5 26 21 58 35 61 27 159 36 184 16 9 -8 27 -4 63 12 61 28 60 28 73
12z m70 -82 c18 -39 16 -42 -33 -47 -60 -7 -118 -47 -158 -108 -27 -43 -39
-52 -84 -66 -35 -10 -62 -27 -82 -49 -38 -43 -49 -30 -16 19 29 42 30 46 13
46 -7 -1 -25 -17 -40 -37 -33 -42 -36 -29 -8 27 23 44 24 50 11 50 -5 0 -23
-21 -40 -47 -17 -25 -31 -44 -31 -40 0 20 24 61 56 97 30 33 51 44 123 66 47
15 97 34 110 43 31 20 142 70 157 71 6 0 16 -11 22 -25z m-576 -37 c-6 -6 -16
-8 -22 -6 -9 3 -7 9 6 22 13 13 19 15 22 6 2 -6 0 -16 -6 -22z m131 -9 c79
-26 86 -34 49 -53 -37 -19 -92 -84 -92 -108 0 -10 -4 -18 -10 -18 -5 0 -57
-20 -115 -45 -64 -27 -111 -42 -119 -38 -29 17 -205 158 -205 165 -1 4 11 10
27 14 15 3 65 17 111 31 45 13 85 22 87 20 3 -2 0 -16 -6 -31 -14 -38 -13 -79
3 -74 6 2 23 26 37 52 22 42 28 47 53 42 34 -7 72 10 92 41 19 28 12 28 88 2z
m911 -43 c23 -13 52 -26 66 -30 14 -3 38 -17 55 -31 l29 -24 -28 -30 c-47 -49
-201 -112 -307 -126 -30 -3 -70 -10 -89 -15 -19 -4 -48 -11 -63 -14 -23 -6
-27 -10 -17 -21 10 -12 -3 -13 -82 -8 -110 7 -148 21 -182 66 -45 59 -24 158
44 209 42 30 139 42 228 28 139 -23 166 -23 213 -1 57 27 83 26 133 -3z"/>
<path d="M2354 2825 c-4 -8 -3 -23 1 -32 6 -16 8 -15 20 7 7 14 11 28 9 32 -8
13 -24 9 -30 -7z"/>
<path d="M2106 2704 c-20 -17 -25 -29 -18 -36 13 -13 47 4 56 28 11 30 -8 34
-38 8z"/>
<path d="M3329 2482 c-30 -20 -50 -41 -60 -68 -29 -72 -38 -104 -28 -110 10
-6 15 5 24 58 8 50 45 92 108 122 42 20 47 25 26 26 -14 0 -45 -13 -70 -28z"/>
<path d="M2898 1588 c-92 -45 -169 -87 -172 -94 -4 -11 319 148 339 167 16 15
5 11 -167 -73z"/>
<path d="M2590 1480 c-160 -59 -188 -82 -39 -31 88 29 156 61 129 59 -8 0 -49
-13 -90 -28z"/>
<path d="M2408 1423 c7 -3 16 -2 19 1 4 3 -2 6 -13 5 -11 0 -14 -3 -6 -6z"/>
<path d="M2650 1265 c-14 -8 -20 -14 -14 -15 5 0 19 7 30 15 24 18 16 19 -16
0z"/>
<path d="M1918 1153 c6 -2 18 -2 25 0 6 3 1 5 -13 5 -14 0 -19 -2 -12 -5z"/>
<path d="M1878 1143 c7 -3 16 -2 19 1 4 3 -2 6 -13 5 -11 0 -14 -3 -6 -6z"/>
<path d="M2608 1013 c7 -3 16 -2 19 1 4 3 -2 6 -13 5 -11 0 -14 -3 -6 -6z"/>
<path d="M2548 993 c7 -3 16 -2 19 1 4 3 -2 6 -13 5 -11 0 -14 -3 -6 -6z"/>
</g>
</svg>
